<mxfile host="app.diagrams.net" agent="Mozilla/5.0 (Windows NT 10.0; Win64; x64) AppleWebKit/537.36 (KHTML, like Gecko) Chrome/136.0.0.0 Safari/537.36" version="27.0.6">
  <diagram name="Page-1" id="coQrz9HvUkuHpYVKgYlH">
    <mxGraphModel dx="5030" dy="4878" grid="1" gridSize="10" guides="1" tooltips="1" connect="1" arrows="1" fold="1" page="1" pageScale="1" pageWidth="850" pageHeight="1100" math="0" shadow="0">
      <root>
        <mxCell id="0" />
        <mxCell id="1" parent="0" />
        <mxCell id="4DSJqVF6IeCHydDA3MtR-58" value="" style="swimlane;startSize=0;strokeWidth=6;gradientColor=none;" parent="1" vertex="1">
          <mxGeometry x="-1470" y="-2540" width="3025" height="1360" as="geometry" />
        </mxCell>
        <mxCell id="F62w4GrTUmQ229fXhJbJ-15" value="" style="endArrow=classic;html=1;rounded=0;exitX=1;exitY=1;exitDx=0;exitDy=0;exitPerimeter=0;entryX=0;entryY=0;entryDx=0;entryDy=-1;entryPerimeter=0;" parent="1" edge="1">
          <mxGeometry width="50" height="50" relative="1" as="geometry">
            <mxPoint x="95.00000000000045" y="-2127.87" as="sourcePoint" />
            <mxPoint x="375" y="-2128.8699999999994" as="targetPoint" />
          </mxGeometry>
        </mxCell>
        <mxCell id="F62w4GrTUmQ229fXhJbJ-25" value="create" style="endArrow=open;endSize=12;dashed=1;html=1;rounded=0;entryX=0;entryY=0.02;entryDx=0;entryDy=0;entryPerimeter=0;" parent="1" source="F62w4GrTUmQ229fXhJbJ-22" target="4DSJqVF6IeCHydDA3MtR-14" edge="1">
          <mxGeometry width="160" relative="1" as="geometry">
            <mxPoint x="380" y="-2257.87" as="sourcePoint" />
            <mxPoint x="540" y="-2258.87" as="targetPoint" />
          </mxGeometry>
        </mxCell>
        <mxCell id="F62w4GrTUmQ229fXhJbJ-14" value="" style="endArrow=classic;html=1;rounded=0;entryX=0;entryY=0;entryDx=0;entryDy=-1;entryPerimeter=0;exitX=1;exitY=0;exitDx=0;exitDy=-1;exitPerimeter=0;" parent="1" source="F62w4GrTUmQ229fXhJbJ-21" target="F62w4GrTUmQ229fXhJbJ-27" edge="1">
          <mxGeometry width="50" height="50" relative="1" as="geometry">
            <mxPoint x="550" y="-2198.87" as="sourcePoint" />
            <mxPoint x="720" y="-2198.87" as="targetPoint" />
          </mxGeometry>
        </mxCell>
        <mxCell id="F62w4GrTUmQ229fXhJbJ-10" value="" style="endArrow=open;endSize=12;dashed=1;html=1;rounded=0;exitX=0;exitY=1;exitDx=0;exitDy=0;exitPerimeter=0;" parent="1" source="F62w4GrTUmQ229fXhJbJ-27" target="F62w4GrTUmQ229fXhJbJ-21" edge="1">
          <mxGeometry width="160" relative="1" as="geometry">
            <mxPoint x="945.6800000000003" y="-2178.87" as="sourcePoint" />
            <mxPoint x="770.0035294117652" y="-2178.87" as="targetPoint" />
          </mxGeometry>
        </mxCell>
        <mxCell id="F62w4GrTUmQ229fXhJbJ-13" value="" style="endArrow=classic;html=1;rounded=0;exitX=0;exitY=1;exitDx=0;exitDy=0;exitPerimeter=0;" parent="1" source="F62w4GrTUmQ229fXhJbJ-21" target="F62w4GrTUmQ229fXhJbJ-22" edge="1">
          <mxGeometry width="50" height="50" relative="1" as="geometry">
            <mxPoint x="300" y="-2818.87" as="sourcePoint" />
            <mxPoint x="475" y="-2818.87" as="targetPoint" />
          </mxGeometry>
        </mxCell>
        <mxCell id="F62w4GrTUmQ229fXhJbJ-12" value="" style="endArrow=classic;html=1;rounded=0;" parent="1" edge="1">
          <mxGeometry width="50" height="50" relative="1" as="geometry">
            <mxPoint x="-265.1060606060605" y="-2108.87" as="sourcePoint" />
            <mxPoint x="374.99999999999955" y="-2108.87" as="targetPoint" />
          </mxGeometry>
        </mxCell>
        <mxCell id="F62w4GrTUmQ229fXhJbJ-35" value="" style="endArrow=classic;html=1;rounded=0;entryX=0;entryY=0;entryDx=0;entryDy=-1;entryPerimeter=0;" parent="1" source="F62w4GrTUmQ229fXhJbJ-22" target="F62w4GrTUmQ229fXhJbJ-18" edge="1">
          <mxGeometry width="50" height="50" relative="1" as="geometry">
            <mxPoint x="395" y="-2028.87" as="sourcePoint" />
            <mxPoint x="500" y="-2028.87" as="targetPoint" />
          </mxGeometry>
        </mxCell>
        <mxCell id="F62w4GrTUmQ229fXhJbJ-34" value="" style="endArrow=classic;html=1;rounded=0;entryX=0;entryY=0;entryDx=0;entryDy=-1;entryPerimeter=0;" parent="1" source="F62w4GrTUmQ229fXhJbJ-18" target="F62w4GrTUmQ229fXhJbJ-37" edge="1">
          <mxGeometry width="50" height="50" relative="1" as="geometry">
            <mxPoint x="560" y="-2004.87" as="sourcePoint" />
            <mxPoint x="725" y="-2008.87" as="targetPoint" />
          </mxGeometry>
        </mxCell>
        <mxCell id="F62w4GrTUmQ229fXhJbJ-38" value="UpdatePollList()" style="edgeLabel;html=1;align=center;verticalAlign=middle;resizable=0;points=[];" parent="F62w4GrTUmQ229fXhJbJ-34" vertex="1" connectable="0">
          <mxGeometry x="-0.1149" y="10" relative="1" as="geometry">
            <mxPoint x="-1" as="offset" />
          </mxGeometry>
        </mxCell>
        <mxCell id="F62w4GrTUmQ229fXhJbJ-39" value="Create" style="endArrow=open;endSize=12;dashed=1;html=1;rounded=0;entryX=0.01;entryY=0.02;entryDx=0;entryDy=0;entryPerimeter=0;exitX=1;exitY=1;exitDx=0;exitDy=0;exitPerimeter=0;" parent="1" source="F62w4GrTUmQ229fXhJbJ-18" target="4DSJqVF6IeCHydDA3MtR-19" edge="1">
          <mxGeometry width="160" relative="1" as="geometry">
            <mxPoint x="600" y="-1968.87" as="sourcePoint" />
            <mxPoint x="770" y="-1968.87" as="targetPoint" />
          </mxGeometry>
        </mxCell>
        <mxCell id="F62w4GrTUmQ229fXhJbJ-40" style="edgeStyle=orthogonalEdgeStyle;rounded=0;orthogonalLoop=1;jettySize=auto;html=1;curved=0;exitX=1;exitY=0;exitDx=0;exitDy=5;exitPerimeter=0;" parent="1" edge="1">
          <mxGeometry relative="1" as="geometry">
            <mxPoint x="850" y="-1930.12" as="sourcePoint" />
            <mxPoint x="850" y="-1915.12" as="targetPoint" />
            <Array as="points">
              <mxPoint x="900" y="-1930.12" />
              <mxPoint x="900" y="-1915.12" />
              <mxPoint x="850" y="-1915.12" />
            </Array>
          </mxGeometry>
        </mxCell>
        <mxCell id="F62w4GrTUmQ229fXhJbJ-52" style="edgeStyle=orthogonalEdgeStyle;rounded=0;orthogonalLoop=1;jettySize=auto;html=1;curved=0;exitX=1;exitY=1;exitDx=0;exitDy=0;exitPerimeter=0;entryX=-0.027;entryY=0.037;entryDx=0;entryDy=0;entryPerimeter=0;" parent="1" source="F62w4GrTUmQ229fXhJbJ-42" target="F62w4GrTUmQ229fXhJbJ-46" edge="1">
          <mxGeometry relative="1" as="geometry">
            <mxPoint x="860" y="-1838.87" as="sourcePoint" />
            <mxPoint x="1060" y="-1838.87" as="targetPoint" />
            <Array as="points">
              <mxPoint x="860" y="-1837.87" />
              <mxPoint x="958" y="-1837.87" />
            </Array>
          </mxGeometry>
        </mxCell>
        <mxCell id="9UTA6uExSDnWXAiQnTBh-10" value="&lt;div&gt;&lt;br&gt;&lt;/div&gt;&lt;div&gt;&lt;br&gt;&lt;/div&gt;" style="edgeLabel;html=1;align=center;verticalAlign=middle;resizable=0;points=[];" parent="F62w4GrTUmQ229fXhJbJ-52" vertex="1" connectable="0">
          <mxGeometry x="0.4367" relative="1" as="geometry">
            <mxPoint as="offset" />
          </mxGeometry>
        </mxCell>
        <mxCell id="4DSJqVF6IeCHydDA3MtR-31" value="" style="endArrow=none;dashed=1;html=1;rounded=0;exitX=0.001;exitY=0.833;exitDx=0;exitDy=0;exitPerimeter=0;entryX=0.999;entryY=0.839;entryDx=0;entryDy=0;entryPerimeter=0;strokeWidth=3;" parent="1" source="4DSJqVF6IeCHydDA3MtR-29" target="4DSJqVF6IeCHydDA3MtR-29" edge="1">
          <mxGeometry width="50" height="50" relative="1" as="geometry">
            <mxPoint x="90" y="-1358.87" as="sourcePoint" />
            <mxPoint x="1100" y="-1358.87" as="targetPoint" />
            <Array as="points" />
          </mxGeometry>
        </mxCell>
        <mxCell id="4DSJqVF6IeCHydDA3MtR-23" value="" style="endArrow=classic;html=1;rounded=0;entryX=0;entryY=0;entryDx=0;entryDy=-1;entryPerimeter=0;" parent="1" edge="1">
          <mxGeometry width="50" height="50" relative="1" as="geometry">
            <mxPoint x="-265.3000000000002" y="-2289.87" as="sourcePoint" />
            <mxPoint x="85" y="-2289.87" as="targetPoint" />
          </mxGeometry>
        </mxCell>
        <mxCell id="9UTA6uExSDnWXAiQnTBh-12" style="edgeStyle=orthogonalEdgeStyle;rounded=0;orthogonalLoop=1;jettySize=auto;html=1;curved=0;" parent="1" edge="1">
          <mxGeometry relative="1" as="geometry">
            <mxPoint x="1065" y="-1824.56" as="sourcePoint" />
            <mxPoint x="1215" y="-1824.56" as="targetPoint" />
            <Array as="points">
              <mxPoint x="1100" y="-1824.56" />
              <mxPoint x="1100" y="-1824.56" />
            </Array>
          </mxGeometry>
        </mxCell>
        <mxCell id="9UTA6uExSDnWXAiQnTBh-14" style="edgeStyle=orthogonalEdgeStyle;rounded=0;orthogonalLoop=1;jettySize=auto;html=1;curved=0;entryX=0;entryY=0;entryDx=0;entryDy=-1;entryPerimeter=0;" parent="1" source="4DSJqVF6IeCHydDA3MtR-12" target="9UTA6uExSDnWXAiQnTBh-13" edge="1">
          <mxGeometry relative="1" as="geometry">
            <Array as="points">
              <mxPoint x="215" y="-1808.87" />
            </Array>
          </mxGeometry>
        </mxCell>
        <mxCell id="9UTA6uExSDnWXAiQnTBh-16" value="create" style="endArrow=open;endSize=12;dashed=1;html=1;rounded=0;entryX=0.04;entryY=0.02;entryDx=0;entryDy=0;entryPerimeter=0;" parent="1" source="9UTA6uExSDnWXAiQnTBh-13" target="4DSJqVF6IeCHydDA3MtR-18" edge="1">
          <mxGeometry width="160" relative="1" as="geometry">
            <mxPoint x="223.83333333333303" y="-1768.87" as="sourcePoint" />
            <mxPoint x="905" y="-1768.87" as="targetPoint" />
          </mxGeometry>
        </mxCell>
        <mxCell id="F62w4GrTUmQ229fXhJbJ-32" value="" style="endArrow=classic;html=1;rounded=0;" parent="1" edge="1">
          <mxGeometry width="50" height="50" relative="1" as="geometry">
            <mxPoint x="385" y="-2098.87" as="sourcePoint" />
            <mxPoint x="385" y="-2078.87" as="targetPoint" />
            <Array as="points">
              <mxPoint x="470" y="-2098.87" />
              <mxPoint x="470" y="-2088.87" />
              <mxPoint x="470" y="-2078.87" />
            </Array>
          </mxGeometry>
        </mxCell>
        <mxCell id="9UTA6uExSDnWXAiQnTBh-21" value="create" style="endArrow=open;endSize=12;dashed=1;html=1;rounded=0;entryX=0.01;entryY=0.01;entryDx=0;entryDy=0;entryPerimeter=0;" parent="1" edge="1">
          <mxGeometry width="160" relative="1" as="geometry">
            <mxPoint x="87.27142857142849" y="-2278.87" as="sourcePoint" />
            <mxPoint x="290.0000000000002" y="-2278.87" as="targetPoint" />
          </mxGeometry>
        </mxCell>
        <mxCell id="9UTA6uExSDnWXAiQnTBh-24" style="edgeStyle=orthogonalEdgeStyle;rounded=0;orthogonalLoop=1;jettySize=auto;html=1;curved=0;entryX=1;entryY=0;entryDx=0;entryDy=0;entryPerimeter=0;" parent="1" source="9UTA6uExSDnWXAiQnTBh-23" target="9UTA6uExSDnWXAiQnTBh-22" edge="1">
          <mxGeometry relative="1" as="geometry">
            <Array as="points">
              <mxPoint x="960" y="-1698.87" />
              <mxPoint x="960" y="-1698.87" />
            </Array>
          </mxGeometry>
        </mxCell>
        <mxCell id="9UTA6uExSDnWXAiQnTBh-29" style="edgeStyle=orthogonalEdgeStyle;rounded=0;orthogonalLoop=1;jettySize=auto;html=1;curved=0;dashed=1;" parent="1" edge="1">
          <mxGeometry relative="1" as="geometry">
            <mxPoint x="715" y="-1648.87" as="sourcePoint" />
            <mxPoint x="555" y="-1648.87" as="targetPoint" />
            <Array as="points">
              <mxPoint x="670" y="-1648.87" />
              <mxPoint x="670" y="-1648.87" />
            </Array>
          </mxGeometry>
        </mxCell>
        <mxCell id="9UTA6uExSDnWXAiQnTBh-30" value="return poll list" style="edgeLabel;html=1;align=center;verticalAlign=middle;resizable=0;points=[];" parent="9UTA6uExSDnWXAiQnTBh-29" vertex="1" connectable="0">
          <mxGeometry x="-0.1875" y="-2" relative="1" as="geometry">
            <mxPoint x="1" as="offset" />
          </mxGeometry>
        </mxCell>
        <mxCell id="9UTA6uExSDnWXAiQnTBh-27" style="edgeStyle=orthogonalEdgeStyle;rounded=0;orthogonalLoop=1;jettySize=auto;html=1;curved=0;entryX=0;entryY=0.01;entryDx=0;entryDy=0;entryPerimeter=0;" parent="1" source="9UTA6uExSDnWXAiQnTBh-22" target="9UTA6uExSDnWXAiQnTBh-26" edge="1">
          <mxGeometry relative="1" as="geometry">
            <Array as="points">
              <mxPoint x="640" y="-1678.87" />
              <mxPoint x="640" y="-1678.87" />
            </Array>
          </mxGeometry>
        </mxCell>
        <mxCell id="9UTA6uExSDnWXAiQnTBh-31" style="edgeStyle=orthogonalEdgeStyle;rounded=0;orthogonalLoop=1;jettySize=auto;html=1;curved=0;" parent="1" source="9UTA6uExSDnWXAiQnTBh-22" target="9UTA6uExSDnWXAiQnTBh-23" edge="1">
          <mxGeometry relative="1" as="geometry">
            <Array as="points">
              <mxPoint x="760" y="-1629.87" />
              <mxPoint x="760" y="-1629.87" />
            </Array>
          </mxGeometry>
        </mxCell>
        <mxCell id="9UTA6uExSDnWXAiQnTBh-34" style="edgeStyle=orthogonalEdgeStyle;rounded=0;orthogonalLoop=1;jettySize=auto;html=1;curved=0;entryX=0;entryY=1;entryDx=0;entryDy=-5;entryPerimeter=0;" parent="1" edge="1">
          <mxGeometry relative="1" as="geometry">
            <mxPoint x="220" y="-1563.87" as="sourcePoint" />
            <mxPoint x="1370" y="-1558.87" as="targetPoint" />
            <Array as="points">
              <mxPoint x="220" y="-1558.87" />
            </Array>
          </mxGeometry>
        </mxCell>
        <mxCell id="9UTA6uExSDnWXAiQnTBh-36" style="edgeStyle=orthogonalEdgeStyle;rounded=0;orthogonalLoop=1;jettySize=auto;html=1;curved=0;" parent="1" target="9UTA6uExSDnWXAiQnTBh-23" edge="1">
          <mxGeometry relative="1" as="geometry">
            <mxPoint x="-336" y="-1518.87" as="sourcePoint" />
            <mxPoint x="1366" y="-1518.87" as="targetPoint" />
            <Array as="points">
              <mxPoint x="518" y="-1517.87" />
            </Array>
          </mxGeometry>
        </mxCell>
        <mxCell id="9UTA6uExSDnWXAiQnTBh-39" style="edgeStyle=orthogonalEdgeStyle;rounded=0;orthogonalLoop=1;jettySize=auto;html=1;curved=0;entryX=0.5;entryY=0;entryDx=0;entryDy=0;entryPerimeter=0;" parent="1" source="9UTA6uExSDnWXAiQnTBh-23" target="9UTA6uExSDnWXAiQnTBh-38" edge="1">
          <mxGeometry relative="1" as="geometry">
            <Array as="points">
              <mxPoint x="760" y="-1498.87" />
              <mxPoint x="760" y="-1498.87" />
            </Array>
          </mxGeometry>
        </mxCell>
        <mxCell id="9UTA6uExSDnWXAiQnTBh-43" style="edgeStyle=orthogonalEdgeStyle;rounded=0;orthogonalLoop=1;jettySize=auto;html=1;curved=0;entryX=0;entryY=0.01;entryDx=0;entryDy=0;entryPerimeter=0;" parent="1" source="9UTA6uExSDnWXAiQnTBh-38" target="9UTA6uExSDnWXAiQnTBh-42" edge="1">
          <mxGeometry relative="1" as="geometry">
            <Array as="points">
              <mxPoint x="630" y="-1478.87" />
              <mxPoint x="630" y="-1478.87" />
            </Array>
          </mxGeometry>
        </mxCell>
        <mxCell id="9UTA6uExSDnWXAiQnTBh-47" style="edgeStyle=orthogonalEdgeStyle;rounded=0;orthogonalLoop=1;jettySize=auto;html=1;exitX=0;exitY=0.99;exitDx=0;exitDy=0;exitPerimeter=0;" parent="1" source="9UTA6uExSDnWXAiQnTBh-42" target="9UTA6uExSDnWXAiQnTBh-38" edge="1">
          <mxGeometry relative="1" as="geometry">
            <mxPoint x="700" y="-1438.87" as="sourcePoint" />
            <mxPoint x="590" y="-1444.87" as="targetPoint" />
            <Array as="points">
              <mxPoint x="715" y="-1446.87" />
            </Array>
          </mxGeometry>
        </mxCell>
        <mxCell id="9UTA6uExSDnWXAiQnTBh-49" style="edgeStyle=orthogonalEdgeStyle;rounded=0;orthogonalLoop=1;jettySize=auto;html=1;curved=0;exitX=1;exitY=1;exitDx=0;exitDy=0;exitPerimeter=0;" parent="1" source="9UTA6uExSDnWXAiQnTBh-38" edge="1">
          <mxGeometry relative="1" as="geometry">
            <mxPoint x="1370" y="-1418.87" as="targetPoint" />
            <mxPoint x="555" y="-1424.203076923077" as="sourcePoint" />
            <Array as="points">
              <mxPoint x="1370" y="-1418.87" />
            </Array>
          </mxGeometry>
        </mxCell>
        <mxCell id="4DSJqVF6IeCHydDA3MtR-19" value=":Notification" style="shape=umlLifeline;perimeter=lifelinePerimeter;whiteSpace=wrap;html=1;container=1;dropTarget=0;collapsible=0;recursiveResize=0;outlineConnect=0;portConstraint=eastwest;newEdgeStyle={&quot;curved&quot;:0,&quot;rounded&quot;:0};points=[[0.01,0.02,0,0,0],[0.5,0.12,0,0,0]];" parent="1" vertex="1">
          <mxGeometry x="800" y="-1988.87" width="100" height="620" as="geometry" />
        </mxCell>
        <mxCell id="F62w4GrTUmQ229fXhJbJ-42" value="" style="html=1;points=[[0,0,0,0,-1],[0,1,0,0,0],[1,0,0,0,-1],[1,1,0,0,0]];perimeter=orthogonalPerimeter;outlineConnect=0;targetShapes=umlLifeline;portConstraint=eastwest;newEdgeStyle={&quot;curved&quot;:0,&quot;rounded&quot;:0};" parent="4DSJqVF6IeCHydDA3MtR-19" vertex="1">
          <mxGeometry x="45" y="58.75" width="10" height="91.25" as="geometry" />
        </mxCell>
        <mxCell id="4DSJqVF6IeCHydDA3MtR-17" value=":Tenant_Notif_Scr" style="shape=umlLifeline;perimeter=lifelinePerimeter;whiteSpace=wrap;html=1;container=1;dropTarget=0;collapsible=0;recursiveResize=0;outlineConnect=0;portConstraint=eastwest;newEdgeStyle={&quot;curved&quot;:0,&quot;rounded&quot;:0};points=[[0,0.03,0,0,0]];" parent="1" vertex="1">
          <mxGeometry x="1160" y="-2458.87" width="120" height="747.5" as="geometry" />
        </mxCell>
        <mxCell id="F62w4GrTUmQ229fXhJbJ-16" value=":Mngr_Home_Scr" style="shape=umlLifeline;perimeter=lifelinePerimeter;whiteSpace=wrap;html=1;container=1;dropTarget=0;collapsible=0;recursiveResize=0;outlineConnect=0;portConstraint=eastwest;newEdgeStyle={&quot;curved&quot;:0,&quot;rounded&quot;:0};" parent="1" vertex="1">
          <mxGeometry x="35" y="-2438.87" width="110" height="1047.5" as="geometry" />
        </mxCell>
        <mxCell id="F62w4GrTUmQ229fXhJbJ-17" value="" style="html=1;points=[[0,0,0,0,-1],[0,1,0,0,0],[1,0,0,0,-1],[1,1,0,0,0]];perimeter=orthogonalPerimeter;outlineConnect=0;targetShapes=umlLifeline;portConstraint=eastwest;newEdgeStyle={&quot;curved&quot;:0,&quot;rounded&quot;:0};" parent="F62w4GrTUmQ229fXhJbJ-16" vertex="1">
          <mxGeometry x="50" y="100" width="10" height="210" as="geometry" />
        </mxCell>
        <mxCell id="F62w4GrTUmQ229fXhJbJ-23" value="Selects &quot;Vote&quot; Button" style="text;html=1;align=center;verticalAlign=middle;resizable=0;points=[];autosize=1;strokeColor=none;fillColor=none;" parent="1" vertex="1">
          <mxGeometry x="-240" y="-2318.87" width="140" height="30" as="geometry" />
        </mxCell>
        <mxCell id="F62w4GrTUmQ229fXhJbJ-26" value=":Poll" style="shape=umlLifeline;perimeter=lifelinePerimeter;whiteSpace=wrap;html=1;container=1;dropTarget=0;collapsible=0;recursiveResize=0;outlineConnect=0;portConstraint=eastwest;newEdgeStyle={&quot;curved&quot;:0,&quot;rounded&quot;:0};points=[[0,0.02,0,0,0]];" parent="1" vertex="1">
          <mxGeometry x="670" y="-2434.37" width="100" height="1010" as="geometry" />
        </mxCell>
        <mxCell id="F62w4GrTUmQ229fXhJbJ-27" value="" style="html=1;points=[[0,0,0,0,-1],[0,1,0,0,0],[1,0,0,0,-1],[1,1,0,0,0]];perimeter=orthogonalPerimeter;outlineConnect=0;targetShapes=umlLifeline;portConstraint=eastwest;newEdgeStyle={&quot;curved&quot;:0,&quot;rounded&quot;:0};" parent="F62w4GrTUmQ229fXhJbJ-26" vertex="1">
          <mxGeometry x="45" y="240" width="10" height="46.12" as="geometry" />
        </mxCell>
        <mxCell id="F62w4GrTUmQ229fXhJbJ-37" value="" style="html=1;points=[[0,0,0,0,-1],[0,1,0,0,0],[1,0,0,0,-1],[1,1,0,0,0]];perimeter=orthogonalPerimeter;outlineConnect=0;targetShapes=umlLifeline;portConstraint=eastwest;newEdgeStyle={&quot;curved&quot;:0,&quot;rounded&quot;:0};" parent="F62w4GrTUmQ229fXhJbJ-26" vertex="1">
          <mxGeometry x="45" y="430" width="10" height="20" as="geometry" />
        </mxCell>
        <mxCell id="9UTA6uExSDnWXAiQnTBh-42" value="" style="html=1;points=[[0,0.01,0,0,0],[0,0.99,0,0,0],[1,0,0,0,0],[1,0.99,0,0,0]];perimeter=orthogonalPerimeter;outlineConnect=0;targetShapes=umlLifeline;portConstraint=eastwest;newEdgeStyle={&quot;curved&quot;:0,&quot;rounded&quot;:0};" parent="F62w4GrTUmQ229fXhJbJ-26" vertex="1">
          <mxGeometry x="45" y="955.5" width="10" height="34.5" as="geometry" />
        </mxCell>
        <mxCell id="9UTA6uExSDnWXAiQnTBh-45" style="edgeStyle=orthogonalEdgeStyle;rounded=0;orthogonalLoop=1;jettySize=auto;html=1;curved=0;" parent="F62w4GrTUmQ229fXhJbJ-26" source="9UTA6uExSDnWXAiQnTBh-42" target="9UTA6uExSDnWXAiQnTBh-42" edge="1">
          <mxGeometry relative="1" as="geometry" />
        </mxCell>
        <mxCell id="F62w4GrTUmQ229fXhJbJ-28" value="queryPollList()" style="text;html=1;align=center;verticalAlign=middle;resizable=0;points=[];autosize=1;strokeColor=none;fillColor=none;" parent="1" vertex="1">
          <mxGeometry x="610" y="-2228.87" width="100" height="30" as="geometry" />
        </mxCell>
        <mxCell id="F62w4GrTUmQ229fXhJbJ-29" value="return Poll List" style="text;html=1;align=center;verticalAlign=middle;resizable=0;points=[];autosize=1;strokeColor=none;fillColor=none;" parent="1" vertex="1">
          <mxGeometry x="585" y="-2178.87" width="100" height="30" as="geometry" />
        </mxCell>
        <mxCell id="F62w4GrTUmQ229fXhJbJ-30" value="ShowPollList()" style="text;html=1;align=center;verticalAlign=middle;resizable=0;points=[];autosize=1;strokeColor=none;fillColor=none;" parent="1" vertex="1">
          <mxGeometry x="415" y="-2168.87" width="100" height="30" as="geometry" />
        </mxCell>
        <mxCell id="F62w4GrTUmQ229fXhJbJ-31" value="Fill poll form and click PostPollbutton()" style="text;html=1;align=center;verticalAlign=middle;resizable=0;points=[];autosize=1;strokeColor=none;fillColor=none;" parent="1" vertex="1">
          <mxGeometry x="-255" y="-2138.87" width="230" height="30" as="geometry" />
        </mxCell>
        <mxCell id="F62w4GrTUmQ229fXhJbJ-33" value="CheckData()" style="text;html=1;align=center;verticalAlign=middle;resizable=0;points=[];autosize=1;strokeColor=none;fillColor=none;" parent="1" vertex="1">
          <mxGeometry x="470" y="-2098.87" width="90" height="30" as="geometry" />
        </mxCell>
        <mxCell id="F62w4GrTUmQ229fXhJbJ-41" value="addNotifToList()" style="text;html=1;align=center;verticalAlign=middle;resizable=0;points=[];autosize=1;strokeColor=none;fillColor=none;" parent="1" vertex="1">
          <mxGeometry x="890" y="-1942.62" width="110" height="30" as="geometry" />
        </mxCell>
        <mxCell id="F62w4GrTUmQ229fXhJbJ-51" value=":&lt;span style=&quot;text-wrap-mode: nowrap;&quot;&gt;ManageNotifClass&lt;/span&gt;" style="shape=umlLifeline;perimeter=lifelinePerimeter;whiteSpace=wrap;html=1;container=1;dropTarget=0;collapsible=0;recursiveResize=0;outlineConnect=0;portConstraint=eastwest;newEdgeStyle={&quot;curved&quot;:0,&quot;rounded&quot;:0};" parent="1" vertex="1">
          <mxGeometry x="995" y="-2461.37" width="130" height="1102.5" as="geometry" />
        </mxCell>
        <mxCell id="F62w4GrTUmQ229fXhJbJ-50" value="sendNotifData()" style="text;html=1;align=center;verticalAlign=middle;resizable=0;points=[];autosize=1;strokeColor=none;fillColor=none;" parent="1" vertex="1">
          <mxGeometry x="870" y="-1860" width="110" height="30" as="geometry" />
        </mxCell>
        <mxCell id="F62w4GrTUmQ229fXhJbJ-49" value="displayNotifications()" style="text;html=1;align=center;verticalAlign=middle;resizable=0;points=[];autosize=1;strokeColor=none;fillColor=none;" parent="1" vertex="1">
          <mxGeometry x="1080" y="-1854.37" width="130" height="30" as="geometry" />
        </mxCell>
        <mxCell id="4DSJqVF6IeCHydDA3MtR-29" value="Alternative" style="shape=umlFrame;whiteSpace=wrap;html=1;pointerEvents=0;width=60;height=40;" parent="1" vertex="1">
          <mxGeometry x="-370" y="-2068.87" width="1800" height="840" as="geometry" />
        </mxCell>
        <mxCell id="F62w4GrTUmQ229fXhJbJ-80" value="&lt;font style=&quot;font-size: 17px;&quot;&gt;&lt;b style=&quot;&quot;&gt;[Correct Form]&lt;/b&gt;&lt;/font&gt;" style="text;html=1;align=center;verticalAlign=middle;resizable=0;points=[];autosize=1;strokeColor=none;fillColor=none;" parent="1" vertex="1">
          <mxGeometry x="760" y="-2058.87" width="140" height="30" as="geometry" />
        </mxCell>
        <mxCell id="F62w4GrTUmQ229fXhJbJ-82" value="&lt;b style=&quot;font-size: 17px;&quot;&gt;[Incorect Form]&lt;/b&gt;" style="text;html=1;align=center;verticalAlign=middle;resizable=0;points=[];autosize=1;strokeColor=none;fillColor=none;" parent="1" vertex="1">
          <mxGeometry x="755" y="-1351.37" width="150" height="30" as="geometry" />
        </mxCell>
        <mxCell id="4DSJqVF6IeCHydDA3MtR-10" value="" style="shape=umlLifeline;perimeter=lifelinePerimeter;whiteSpace=wrap;html=1;container=1;dropTarget=0;collapsible=0;recursiveResize=0;outlineConnect=0;portConstraint=eastwest;newEdgeStyle={&quot;curved&quot;:0,&quot;rounded&quot;:0};participant=umlActor;" parent="1" vertex="1">
          <mxGeometry x="-275" y="-2435" width="20" height="1037.5" as="geometry" />
        </mxCell>
        <mxCell id="4DSJqVF6IeCHydDA3MtR-12" value="" style="shape=umlLifeline;perimeter=lifelinePerimeter;whiteSpace=wrap;html=1;container=1;dropTarget=0;collapsible=0;recursiveResize=0;outlineConnect=0;portConstraint=eastwest;newEdgeStyle={&quot;curved&quot;:0,&quot;rounded&quot;:0};participant=umlActor;points=[[0.58,0.7,0,0,0]];" parent="1" vertex="1">
          <mxGeometry x="-340" y="-2435" width="20" height="1037.5" as="geometry" />
        </mxCell>
        <mxCell id="4DSJqVF6IeCHydDA3MtR-13" value="Tenant" style="text;html=1;align=center;verticalAlign=middle;resizable=0;points=[];autosize=1;strokeColor=none;fillColor=none;" parent="1" vertex="1">
          <mxGeometry x="-360" y="-2470" width="60" height="30" as="geometry" />
        </mxCell>
        <mxCell id="4DSJqVF6IeCHydDA3MtR-11" value="Manager" style="text;html=1;align=center;verticalAlign=middle;resizable=0;points=[];autosize=1;strokeColor=none;fillColor=none;" parent="1" vertex="1">
          <mxGeometry x="-300" y="-2470" width="70" height="30" as="geometry" />
        </mxCell>
        <mxCell id="9UTA6uExSDnWXAiQnTBh-2" value=":Tnt_Home_Scr" style="shape=umlLifeline;perimeter=lifelinePerimeter;whiteSpace=wrap;html=1;container=1;dropTarget=0;collapsible=0;recursiveResize=0;outlineConnect=0;portConstraint=eastwest;newEdgeStyle={&quot;curved&quot;:0,&quot;rounded&quot;:0};" parent="1" vertex="1">
          <mxGeometry x="165" y="-2438.87" width="110" height="1047.5" as="geometry" />
        </mxCell>
        <mxCell id="9UTA6uExSDnWXAiQnTBh-13" value="" style="html=1;points=[[0,0,0,0,-1],[0,1,0,0,0],[1,0,0,0,-1],[1,1,0,0,0]];perimeter=orthogonalPerimeter;outlineConnect=0;targetShapes=umlLifeline;portConstraint=eastwest;newEdgeStyle={&quot;curved&quot;:0,&quot;rounded&quot;:0};" parent="9UTA6uExSDnWXAiQnTBh-2" vertex="1">
          <mxGeometry x="50" y="630" width="10" height="250" as="geometry" />
        </mxCell>
        <mxCell id="F62w4GrTUmQ229fXhJbJ-24" value="display()" style="text;html=1;align=center;verticalAlign=middle;resizable=0;points=[];autosize=1;strokeColor=none;fillColor=none;" parent="1" vertex="1">
          <mxGeometry x="160" y="-2158.87" width="70" height="30" as="geometry" />
        </mxCell>
        <mxCell id="F62w4GrTUmQ229fXhJbJ-36" value="sendFormData()" style="text;html=1;align=center;verticalAlign=middle;resizable=0;points=[];autosize=1;strokeColor=none;fillColor=none;" parent="1" vertex="1">
          <mxGeometry x="400" y="-2058.87" width="110" height="30" as="geometry" />
        </mxCell>
        <mxCell id="F62w4GrTUmQ229fXhJbJ-46" value="" style="html=1;points=[[0,0,0,0,-1],[0,1,0,0,-5],[1,0,0,0,5],[1,1,0,0,-5]];perimeter=orthogonalPerimeter;outlineConnect=0;targetShapes=umlLifeline;portConstraint=eastwest;newEdgeStyle={&quot;curved&quot;:0,&quot;rounded&quot;:0};" parent="1" vertex="1">
          <mxGeometry x="1055" y="-1838.87" width="10" height="14.5" as="geometry" />
        </mxCell>
        <mxCell id="F62w4GrTUmQ229fXhJbJ-47" value="" style="html=1;points=[[0,0.05,0,0,0],[0,1,0,0,-5],[1,0,0,0,5],[1,1,0,0,-5]];perimeter=orthogonalPerimeter;outlineConnect=0;targetShapes=umlLifeline;portConstraint=eastwest;newEdgeStyle={&quot;curved&quot;:0,&quot;rounded&quot;:0};" parent="1" vertex="1">
          <mxGeometry x="1215" y="-1824.37" width="10" height="20.87" as="geometry" />
        </mxCell>
        <mxCell id="9UTA6uExSDnWXAiQnTBh-15" value="click &quot;Vote&quot; button" style="text;html=1;align=center;verticalAlign=middle;resizable=0;points=[];autosize=1;strokeColor=none;fillColor=none;" parent="1" vertex="1">
          <mxGeometry x="-250" y="-1846.62" width="120" height="30" as="geometry" />
        </mxCell>
        <mxCell id="F62w4GrTUmQ229fXhJbJ-84" value="IncorrectFormMessage()" style="text;html=1;align=center;verticalAlign=middle;resizable=0;points=[];autosize=1;strokeColor=none;fillColor=none;" parent="1" vertex="1">
          <mxGeometry x="460" y="-1298.87" width="150" height="30" as="geometry" />
        </mxCell>
        <mxCell id="9UTA6uExSDnWXAiQnTBh-20" value="" style="group" parent="1" vertex="1" connectable="0">
          <mxGeometry x="490" y="-2258.87" width="120" height="920" as="geometry" />
        </mxCell>
        <mxCell id="4DSJqVF6IeCHydDA3MtR-14" value=":ManagePollClass" style="shape=umlLifeline;perimeter=lifelinePerimeter;whiteSpace=wrap;html=1;container=0;dropTarget=0;collapsible=0;recursiveResize=0;outlineConnect=0;portConstraint=eastwest;newEdgeStyle={&quot;curved&quot;:0,&quot;rounded&quot;:0};points=[[0,0.02,0,0,0]];" parent="9UTA6uExSDnWXAiQnTBh-20" vertex="1">
          <mxGeometry width="120" height="920" as="geometry" />
        </mxCell>
        <mxCell id="F62w4GrTUmQ229fXhJbJ-21" value="" style="html=1;points=[[0,0,0,0,-1],[0,1,0,0,0],[1,0,0,0,-1],[1,1,0,0,0]];perimeter=orthogonalPerimeter;outlineConnect=0;targetShapes=umlLifeline;portConstraint=eastwest;newEdgeStyle={&quot;curved&quot;:0,&quot;rounded&quot;:0};" parent="9UTA6uExSDnWXAiQnTBh-20" vertex="1">
          <mxGeometry x="55" y="60" width="10" height="60" as="geometry" />
        </mxCell>
        <mxCell id="F62w4GrTUmQ229fXhJbJ-18" value="" style="html=1;points=[[0,0,0,0,-1],[0,1,0,0,0],[1,0,0,0,-1],[1,1,0,0,0]];perimeter=orthogonalPerimeter;outlineConnect=0;targetShapes=umlLifeline;portConstraint=eastwest;newEdgeStyle={&quot;curved&quot;:0,&quot;rounded&quot;:0};" parent="9UTA6uExSDnWXAiQnTBh-20" vertex="1">
          <mxGeometry x="55" y="230" width="10" height="50" as="geometry" />
        </mxCell>
        <mxCell id="9UTA6uExSDnWXAiQnTBh-22" value="" style="html=1;points=[[0,0.01,0,0,0],[0,0.99,0,0,0],[1,0,0,0,0],[1,0.99,0,0,0]];perimeter=orthogonalPerimeter;outlineConnect=0;targetShapes=umlLifeline;portConstraint=eastwest;newEdgeStyle={&quot;curved&quot;:0,&quot;rounded&quot;:0};" parent="9UTA6uExSDnWXAiQnTBh-20" vertex="1">
          <mxGeometry x="55" y="560" width="10" height="70" as="geometry" />
        </mxCell>
        <mxCell id="9UTA6uExSDnWXAiQnTBh-38" value="" style="html=1;points=[[0,0.01,0,0,0],[0,0.99,0,0,0],[0.9,0.69,0,0,0],[0.95,0.58,0,0,0],[1,0,0,0,0],[1,0.99,0,0,0]];perimeter=orthogonalPerimeter;outlineConnect=0;targetShapes=umlLifeline;portConstraint=eastwest;newEdgeStyle={&quot;curved&quot;:0,&quot;rounded&quot;:0};" parent="9UTA6uExSDnWXAiQnTBh-20" vertex="1">
          <mxGeometry x="55" y="760" width="10" height="80" as="geometry" />
        </mxCell>
        <mxCell id="4DSJqVF6IeCHydDA3MtR-20" value=":Mngr_Poll_Scr" style="shape=umlLifeline;perimeter=lifelinePerimeter;whiteSpace=wrap;html=1;container=0;dropTarget=0;collapsible=0;recursiveResize=0;outlineConnect=0;portConstraint=eastwest;newEdgeStyle={&quot;curved&quot;:0,&quot;rounded&quot;:0};points=[[0.01,0.01,0,0,0]];" parent="1" vertex="1">
          <mxGeometry x="290" y="-2308.87" width="180" height="1080" as="geometry" />
        </mxCell>
        <mxCell id="9UTA6uExSDnWXAiQnTBh-1" value="" style="html=1;points=[[0,0,0,0,5],[0,1,0,0,-5],[1,0,0,0,5],[1,1,0,0,-5]];perimeter=orthogonalPerimeter;outlineConnect=0;targetShapes=umlLifeline;portConstraint=eastwest;newEdgeStyle={&quot;curved&quot;:0,&quot;rounded&quot;:0};" parent="4DSJqVF6IeCHydDA3MtR-20" vertex="1">
          <mxGeometry x="85" y="970" width="10" height="80" as="geometry" />
        </mxCell>
        <mxCell id="F62w4GrTUmQ229fXhJbJ-83" value="" style="endArrow=classic;html=1;rounded=0;" parent="4DSJqVF6IeCHydDA3MtR-20" edge="1">
          <mxGeometry width="50" height="50" relative="1" as="geometry">
            <mxPoint x="95" y="1010.5" as="sourcePoint" />
            <mxPoint x="95" y="1030.5" as="targetPoint" />
            <Array as="points">
              <mxPoint x="160" y="1010" />
              <mxPoint x="160" y="1030" />
            </Array>
          </mxGeometry>
        </mxCell>
        <mxCell id="F62w4GrTUmQ229fXhJbJ-22" value="" style="html=1;points=[[0,0,0,0,-1],[0,1,0,0,0],[1,0,0,0,-1],[1,1,0,0,0]];perimeter=orthogonalPerimeter;outlineConnect=0;targetShapes=umlLifeline;portConstraint=eastwest;newEdgeStyle={&quot;curved&quot;:0,&quot;rounded&quot;:0};" parent="1" vertex="1">
          <mxGeometry x="375" y="-2238.87" width="10" height="210" as="geometry" />
        </mxCell>
        <mxCell id="9UTA6uExSDnWXAiQnTBh-23" value="" style="html=1;points=[[0,0,0,0,5],[0,1,0,0,2],[1,0,0,0,5],[1,1,0,0,-5]];perimeter=orthogonalPerimeter;outlineConnect=0;targetShapes=umlLifeline;portConstraint=eastwest;newEdgeStyle={&quot;curved&quot;:0,&quot;rounded&quot;:0};" parent="1" vertex="1">
          <mxGeometry x="1370" y="-1711.37" width="10" height="292.5" as="geometry" />
        </mxCell>
        <mxCell id="9UTA6uExSDnWXAiQnTBh-26" value="" style="html=1;points=[[0,0.01,0,0,0],[0,0.99,0,0,0],[1,0,0,0,0],[1,0.99,0,0,0]];perimeter=orthogonalPerimeter;outlineConnect=0;targetShapes=umlLifeline;portConstraint=eastwest;newEdgeStyle={&quot;curved&quot;:0,&quot;rounded&quot;:0};" parent="1" vertex="1">
          <mxGeometry x="715" y="-1678.87" width="10" height="30" as="geometry" />
        </mxCell>
        <mxCell id="9UTA6uExSDnWXAiQnTBh-35" value="display()" style="text;html=1;align=center;verticalAlign=middle;resizable=0;points=[];autosize=1;strokeColor=none;fillColor=none;" parent="1" vertex="1">
          <mxGeometry x="250" y="-1588.87" width="70" height="30" as="geometry" />
        </mxCell>
        <mxCell id="9UTA6uExSDnWXAiQnTBh-37" value="selects their choice and vote()" style="text;html=1;align=center;verticalAlign=middle;resizable=0;points=[];autosize=1;strokeColor=none;fillColor=none;" parent="1" vertex="1">
          <mxGeometry x="-250" y="-1548.87" width="180" height="30" as="geometry" />
        </mxCell>
        <mxCell id="9UTA6uExSDnWXAiQnTBh-46" value="calculatePercentage()" style="text;html=1;align=center;verticalAlign=middle;resizable=0;points=[];autosize=1;strokeColor=none;fillColor=none;" parent="1" vertex="1">
          <mxGeometry x="725" y="-1480.87" width="140" height="30" as="geometry" />
        </mxCell>
        <mxCell id="9UTA6uExSDnWXAiQnTBh-50" value="displayResults()" style="text;html=1;align=center;verticalAlign=middle;resizable=0;points=[];autosize=1;strokeColor=none;fillColor=none;" parent="1" vertex="1">
          <mxGeometry x="900" y="-1438.87" width="110" height="30" as="geometry" />
        </mxCell>
        <mxCell id="9UTA6uExSDnWXAiQnTBh-25" value="loadPollList()" style="text;html=1;align=center;verticalAlign=middle;resizable=0;points=[];autosize=1;strokeColor=none;fillColor=none;" parent="1" vertex="1">
          <mxGeometry x="935" y="-1730.87" width="90" height="30" as="geometry" />
        </mxCell>
        <mxCell id="9UTA6uExSDnWXAiQnTBh-28" value="queryPollList()" style="text;html=1;align=center;verticalAlign=middle;resizable=0;points=[];autosize=1;strokeColor=none;fillColor=none;" parent="1" vertex="1">
          <mxGeometry x="570" y="-1700.87" width="100" height="30" as="geometry" />
        </mxCell>
        <mxCell id="9UTA6uExSDnWXAiQnTBh-32" value="showResults()" style="text;html=1;align=center;verticalAlign=middle;resizable=0;points=[];autosize=1;strokeColor=none;fillColor=none;" parent="1" vertex="1">
          <mxGeometry x="900" y="-1650.87" width="100" height="30" as="geometry" />
        </mxCell>
        <mxCell id="9UTA6uExSDnWXAiQnTBh-41" value="sendVoteData()" style="text;html=1;align=center;verticalAlign=middle;resizable=0;points=[];autosize=1;strokeColor=none;fillColor=none;" parent="1" vertex="1">
          <mxGeometry x="735" y="-1520.87" width="110" height="30" as="geometry" />
        </mxCell>
        <mxCell id="9UTA6uExSDnWXAiQnTBh-44" value="updatePollList()" style="text;html=1;align=center;verticalAlign=middle;resizable=0;points=[];autosize=1;strokeColor=none;fillColor=none;" parent="1" vertex="1">
          <mxGeometry x="565" y="-1500.87" width="110" height="30" as="geometry" />
        </mxCell>
        <mxCell id="9UTA6uExSDnWXAiQnTBh-48" value="sendVoteResults()" style="text;html=1;align=center;verticalAlign=middle;resizable=0;points=[];autosize=1;strokeColor=none;fillColor=none;" parent="1" vertex="1">
          <mxGeometry x="570" y="-1470.87" width="120" height="30" as="geometry" />
        </mxCell>
        <mxCell id="4DSJqVF6IeCHydDA3MtR-18" value=":Tenant_Poll_Scr" style="shape=umlLifeline;perimeter=lifelinePerimeter;whiteSpace=wrap;html=1;container=1;dropTarget=0;collapsible=0;recursiveResize=0;outlineConnect=0;portConstraint=eastwest;newEdgeStyle={&quot;curved&quot;:0,&quot;rounded&quot;:0};points=[[0.04,0.02,0,0,0]];" parent="1" vertex="1">
          <mxGeometry x="1325" y="-1768.87" width="100" height="558.87" as="geometry" />
        </mxCell>
        <mxCell id="4DSJqVF6IeCHydDA3MtR-1" value="&lt;ol type=&quot;1&quot; start=&quot;1&quot; style=&quot;margin-top:0in&quot;&gt;&lt;font style=&quot;font-size: 16px;&quot;&gt;&lt;p class=&quot;MsoNormal&quot;&gt;&lt;b&gt;&lt;u&gt;&lt;br&gt;Use&lt;/u&gt;&lt;/b&gt;&lt;b&gt;&lt;u&gt; case&lt;/u&gt;&lt;/b&gt;&lt;b&gt;&lt;u&gt;&lt;span lang=&quot;EL&quot;&gt; 3 (&lt;/span&gt;Create&lt;/u&gt;&lt;/b&gt;&lt;b&gt;&lt;u&gt; poll&lt;/u&gt;&lt;/b&gt;&lt;span style=&quot;&quot; lang=&quot;EL&quot;&gt;&lt;u style=&quot;font-weight: bold;&quot;&gt;)&lt;/u&gt;&lt;br&gt;&lt;br&gt;&lt;/span&gt;&lt;/p&gt; &lt;/font&gt;&lt;li style=&quot;color: black;&quot; class=&quot;MsoNormal&quot;&gt;&lt;span lang=&quot;EL&quot;&gt;&lt;font style=&quot;font-size: 16px;&quot;&gt;Ο διαχειριστής επιλέγει να μεταβεί στην οθόνη ψηφοφοριών.&lt;/font&gt;&lt;/span&gt;&lt;/li&gt;&lt;font style=&quot;font-size: 16px;&quot;&gt;&lt;br&gt; &lt;/font&gt;&lt;li style=&quot;color: black;&quot; class=&quot;MsoNormal&quot;&gt;&lt;font style=&quot;font-size: 16px;&quot;&gt;T&lt;span lang=&quot;EL&quot;&gt;ο σύστημα του εμφανίζει την οθόνη ψηφοφοριών&lt;/span&gt;&lt;/font&gt;&lt;/li&gt;&lt;font style=&quot;font-size: 16px;&quot;&gt;&lt;br&gt; &lt;/font&gt;&lt;li style=&quot;color: black;&quot; class=&quot;MsoNormal&quot;&gt;&lt;span lang=&quot;EL&quot;&gt;&lt;font style=&quot;font-size: 16px;&quot;&gt;Ο διαχειριστής συμπληρώνει την φόρμα στοιχείων της ψηφοφορίας και αιτείται στο σύστημα να την ανεβάσει στη λίστα ψηφοφοριών.&lt;/font&gt;&lt;/span&gt;&lt;/li&gt;&lt;font style=&quot;font-size: 16px;&quot;&gt;&lt;br&gt; &lt;/font&gt;&lt;li style=&quot;color: black;&quot; class=&quot;MsoNormal&quot;&gt;&lt;span lang=&quot;EL&quot;&gt;&lt;font style=&quot;font-size: 16px;&quot;&gt;Το σύστημα ελέγχει την εγκυρότητα των στοιχείων της φόρμας.&lt;/font&gt;&lt;/span&gt;&lt;/li&gt;&lt;font style=&quot;font-size: 16px;&quot;&gt;&lt;br&gt; &lt;/font&gt;&lt;li style=&quot;color: black;&quot; class=&quot;MsoNormal&quot;&gt;&lt;span lang=&quot;EL&quot;&gt;&lt;font style=&quot;font-size: 16px;&quot;&gt;Το σύστημα ενημερώνει την λίστα ψηφοφοριών&lt;/font&gt;&lt;/span&gt;&lt;/li&gt;&lt;font style=&quot;font-size: 16px;&quot;&gt;&lt;br&gt; &lt;/font&gt;&lt;li style=&quot;color: black;&quot; class=&quot;MsoNormal&quot;&gt;&lt;span lang=&quot;EL&quot;&gt;&lt;font style=&quot;font-size: 16px;&quot;&gt;Το σύστημα στέλνει ειδοποίηση στην ένοικο και εμφανίζεται στην οθόνη ειδοποιήσεών του.&lt;/font&gt;&lt;/span&gt;&lt;/li&gt;&lt;font style=&quot;font-size: 16px;&quot;&gt;&lt;br&gt; &lt;/font&gt;&lt;li class=&quot;MsoNormal&quot;&gt;&lt;span style=&quot;&quot; lang=&quot;EL&quot;&gt;&lt;font style=&quot;font-size: 16px;&quot;&gt;&lt;font style=&quot;color: light-dark(rgb(0, 0, 0), rgb(255, 255, 255));&quot;&gt;Ο ένοικος μεταβαίνει στην οθόνη ψηφοφοριών από την &lt;/font&gt;&lt;font style=&quot;color: light-dark(rgb(0, 0, 0), rgb(68, 118, 255));&quot;&gt;Home Screen&lt;/font&gt;&lt;font style=&quot;color: light-dark(rgb(0, 0, 0), rgb(255, 255, 255));&quot;&gt; και καταχωρεί την επιλογή του.&lt;/font&gt;&lt;/font&gt;&lt;/span&gt;&lt;/li&gt;&lt;font style=&quot;font-size: 16px;&quot;&gt;&lt;br&gt; &lt;/font&gt;&lt;li style=&quot;color: black;&quot; class=&quot;MsoNormal&quot;&gt;&lt;span lang=&quot;EL&quot;&gt;&lt;font style=&quot;font-size: 16px;&quot;&gt;Το σύστημα ενημερώνει τη λίστα ψηφοφοριών με τις επιλογές των ενοίκων και υπολογίζει το νέο ποσοστό για την κάθε επιλογή.&lt;/font&gt;&lt;/span&gt;&lt;/li&gt;&lt;font style=&quot;font-size: 16px;&quot;&gt;&lt;br&gt; &lt;/font&gt;&lt;li style=&quot;color: black;&quot; class=&quot;MsoNormal&quot;&gt;&lt;font style=&quot;font-size: 16px;&quot;&gt;&lt;span lang=&quot;EL&quot;&gt;Με την λήξη της χρονικής διάρκειας του &lt;/span&gt;poll&lt;span lang=&quot;EL&quot;&gt; το σύστημα εμφανίζει το αποτέλεσμα του στην οθόνη ψηφοφοριών του&lt;br&gt;     ενοίκου και στην οθόνη ψηφοφοριών του διαχειριστή&lt;/span&gt;&lt;/font&gt;&lt;/li&gt;&lt;/ol&gt;&lt;div&gt;&lt;font color=&quot;#ededed&quot;&gt;&lt;span style=&quot;font-size: 16px;&quot;&gt;&lt;br&gt;&lt;/span&gt;&lt;/font&gt;&lt;/div&gt;&lt;div&gt;&lt;font color=&quot;#ededed&quot;&gt;&lt;span style=&quot;font-size: 16px;&quot;&gt;&lt;span style=&quot;white-space: pre;&quot;&gt;&#x9;&lt;/span&gt;&lt;br&gt;&lt;/span&gt;&lt;/font&gt;&lt;span style=&quot;background-color: transparent; color: black;&quot; lang=&quot;EL&quot;&gt;&lt;span style=&quot;white-space: pre;&quot;&gt;&lt;br&gt;&lt;/span&gt;&lt;/span&gt;&lt;/div&gt;&lt;div&gt;&lt;span style=&quot;background-color: transparent; color: black;&quot; lang=&quot;EL&quot;&gt;&lt;span style=&quot;white-space: pre;&quot;&gt;&#x9;&lt;/span&gt;Εναλλακτική ροή 1 ( &lt;/span&gt;&lt;span style=&quot;background-color: transparent; color: black;&quot;&gt;Poll&lt;/span&gt;&lt;span style=&quot;background-color: transparent; color: black;&quot;&gt; &lt;/span&gt;&lt;span style=&quot;background-color: transparent; color: black;&quot;&gt;upload&lt;/span&gt;&lt;span style=&quot;background-color: transparent; color: black;&quot;&gt; &lt;span lang=&quot;EL&quot;&gt;λάθος)&lt;/span&gt;&lt;/span&gt;&lt;/div&gt;&lt;br&gt;&lt;p class=&quot;MsoNormal&quot;&gt;&lt;span style=&quot;color: black;&quot; lang=&quot;EL&quot;&gt;&lt;span style=&quot;white-space: pre;&quot;&gt;&#x9;&lt;/span&gt;1. Το σύστημα βρίσκει λάθος στην φόρμα και αποκρίνεται με μήνυμα λάθους εξηγώντας γιατί έχει λάθος η φόρμα.&amp;nbsp;&lt;/span&gt;&lt;span style=&quot;color: black;&quot;&gt;&lt;/span&gt;&lt;/p&gt;&lt;ol type=&quot;1&quot; start=&quot;1&quot; style=&quot;margin-top:0in&quot;&gt;&lt;br&gt;&lt;/ol&gt;" style="text;html=1;align=left;verticalAlign=middle;resizable=0;points=[];autosize=1;strokeColor=none;fillColor=none;" parent="1" vertex="1">
          <mxGeometry x="-1420" y="-2458.87" width="1000" height="610" as="geometry" />
        </mxCell>
      </root>
    </mxGraphModel>
  </diagram>
</mxfile>
